<svg id="Capa_1" data-name="Capa 1" xmlns="http://www.w3.org/2000/svg" width='25' height='25' viewBox="0 0 20 20"><defs><style>.cls-1{fill:#bffe2d;}</style></defs><title>icon _trash</title><path class="cls-1" d="M19.34,5a.88.88,0,0,1-.94.94H1.47A.89.89,0,0,1,.53,5,.89.89,0,0,1,1.47,4H6.18V3.1a.89.89,0,0,1,.94-.94h5.64a.89.89,0,0,1,.94.94V4h4.7A.89.89,0,0,1,19.34,5ZM3.26,20.13,2.41,7.8H17.46l-.84,12.33a.92.92,0,0,1-.94.84H4.2A1,1,0,0,1,3.26,20.13Zm9.5-2.92a.94.94,0,0,0,1.88,0V11.57a.94.94,0,1,0-1.88,0ZM9,17.21a.88.88,0,0,0,.94.94.89.89,0,0,0,.94-.94V11.57a.89.89,0,0,0-.94-.94.88.88,0,0,0-.94.94Zm-3.77,0a.89.89,0,0,0,.95.94.89.89,0,0,0,.94-.94V11.57a.89.89,0,0,0-.94-.94.89.89,0,0,0-.95.94Z"/></svg>