<?xml version="1.0" encoding="utf-8"?>
<!-- Generator: Adobe Illustrator 22.0.0, SVG Export Plug-In . SVG Version: 6.00 Build 0)  -->
<svg version="1.1" id="Capa_1" xmlns="http://www.w3.org/2000/svg" xmlns:xlink="http://www.w3.org/1999/xlink" x="0px" y="0px"
	 viewBox="0 0 336 319" style="enable-background:new 0 0 336 319;" xml:space="preserve">
<style type="text/css">
	.st0{clip-path:url(#SVGID_2_);}
	.st1{fill:#E8E8E8;}
	.st2{fill:#BFFE2D;}
	.st3{fill:#FFFFFF;}
	.st4{opacity:0.18;fill:#9B9797;enable-background:new    ;}
	.st5{opacity:0.25;fill:#9B9797;enable-background:new    ;}
	.st6{opacity:0.24;fill:#9B9797;enable-background:new    ;}
	.st7{fill:none;stroke:#000000;stroke-width:3;stroke-miterlimit:10;}
</style>
<g>
	<defs>
		<rect id="SVGID_1_" y="15" width="336" height="304"/>
	</defs>
	<clipPath id="SVGID_2_">
		<use xlink:href="#SVGID_1_"  style="overflow:visible;"/>
	</clipPath>
	<g class="st0">
		<path class="st1" d="M0.7,264.8c2.9-1.4,4.2-5.2,7.4-6.2c3.3-1,6.9,1,9.9-1.2c1.3-1,2.3-2.6,3.8-3.1c1.4-0.5,2.8,0.1,4.2,0.5
			c1.1,0.4,2.3,0.7,3.4,1c4.6,1.4,9.1,2.8,13.7,4.2c5.2,1.6,10.3,3.2,15.5,4.8c0.5,0.2,0.7-0.6,0.2-0.8c-9.5-2.9-18.9-5.8-28.4-8.7
			c-2.2-0.7-4.5-1.7-6.8-2c-1.6-0.2-2.9,0.4-4,1.5c-1.6,1.5-2.8,2.8-5.1,2.9c-1.9,0.1-3.8-0.4-5.7-0.1c-3.9,0.6-5.1,4.9-8.5,6.5
			C-0.2,264.4,0.2,265.1,0.7,264.8z"/>
		<path class="st1" d="M50.4,261.4c2,0.5,3.5-1.5,5.3-2c2.4-0.8,4.9-0.5,7.1,0.8c0.5,0.3,0.9-0.4,0.4-0.7c-1.8-1.1-3.9-1.5-6-1.2
			c-0.9,0.1-1.8,0.4-2.6,0.7c-1.2,0.5-2.6,2-4,1.7C50.1,260.4,49.9,261.2,50.4,261.4z"/>
		<path class="st1" d="M71.7,259.3c-1.9-1.5-3.6-3.1-5.3-4.9c-0.8-0.8-1.5-1.7-2.2-2.5c-0.4-0.5-0.8-1-1.2-1.5
			c-0.3-0.4-0.6-0.7-0.8-1.1c-0.4-0.4-0.4-1,0-1.6c0.3,0.1,0.9-0.2,0.6-0.6c-1.7-2.3-2.9-4.7-3.7-7.5c-0.2,0.2-0.3,0.3-0.5,0.5
			c0.9,0.2,1.6,0.7,2.1,1.5c0.3,0.4,1,0.1,0.7-0.4c-4.1-7.1-7.5-14.6-10-22.5c-0.2,0.1-0.5,0.3-0.7,0.4
			c11.6,11.4,16.9,27.2,26.6,39.9c0.3,0.4,1.1,0,0.7-0.4c-9.8-12.8-15.1-28.7-26.8-40.1c-0.3-0.3-0.8,0-0.7,0.4
			c2.6,7.9,5.9,15.5,10.1,22.6c0.2-0.1,0.5-0.3,0.7-0.4c-0.6-1-1.5-1.6-2.6-1.9c-0.3-0.1-0.6,0.2-0.5,0.5c0.8,2.8,2.1,5.3,3.8,7.7
			c0.2-0.2,0.4-0.4,0.6-0.6c-0.8-0.4-1.6,0-1.8,0.9c-0.2,1.3,1.3,2.7,2,3.6c2.5,3.1,5.3,5.9,8.3,8.3
			C71.6,260.2,72.2,259.6,71.7,259.3z"/>
		<path class="st1" d="M68.8,242c-5.1-7.6-9.2-15.7-12.3-24.4c-0.1,0.2-0.2,0.3-0.3,0.5c0.9-0.2,1.7,0.1,2.3,1
			c0.3,0.5,0.9,0.1,0.7-0.4c-4.3-9.3-8.7-18.9-8.4-29.3c-0.2,0.1-0.5,0.1-0.8,0.2c7.4,15.2,14.4,30.6,21.1,46.1
			c0.2,0.4,0.9,0.1,0.7-0.3c-1.1-3.3-2.2-6.7-3.3-10c-0.5-1.6-1.1-3.2-1.6-4.9c-0.4-1.1-1.1-3.4,0.4-4c-0.2-0.1-0.3-0.1-0.5-0.2
			c2,3.9,4,7.8,5.9,11.7c0.2,0.5,1,0.1,0.7-0.4c-2.2-4.2-3.2-8.9-3-13.6c-0.3,0-0.6,0.1-0.8,0.1c5.8,14.3,12.4,28.2,19.9,41.6
			c0.2,0.5,1,0.1,0.7-0.4c-7.5-13.4-14.1-27.2-19.8-41.4c-0.2-0.4-0.8-0.4-0.8,0.1c-0.2,4.9,0.9,9.7,3.1,14.1
			c0.2-0.1,0.5-0.3,0.7-0.4c-2-3.9-4-7.8-5.9-11.7c-0.1-0.1-0.3-0.2-0.5-0.2c-2.8,1-1,5-0.4,6.8c1.4,4.3,2.9,8.7,4.3,13
			c0.2-0.1,0.5-0.2,0.7-0.3c-6.6-15.5-13.7-30.9-21.1-46.1c-0.2-0.4-0.8-0.2-0.8,0.2c-0.3,10.5,4.1,20.4,8.5,29.7
			c0.2-0.1,0.5-0.3,0.7-0.4c-0.7-1.1-1.9-1.6-3.2-1.4c-0.2,0.1-0.4,0.3-0.3,0.5c3.1,8.7,7.2,16.9,12.3,24.5
			C68.4,242.9,69.1,242.5,68.8,242z"/>
		<path class="st1" d="M14.2,295.4c9.6-4.6,19.7-9.3,30.6-8.2c5.2,0.5,10.2,2,15.3,2.7c2.6,0.3,5.2,0.5,7.8,0.2
			c2.4-0.3,4.7-1.2,7.1-1.7c3.1-0.7,5.9,0,8.8,0.9c2.4,0.7,4.8,1.2,7.4,0.6c0.5-0.1,0.3-0.9-0.2-0.8c-5,1.2-9.8-2.4-14.9-1.7
			c-2.5,0.4-4.9,1.4-7.4,1.8c-2.6,0.4-5.3,0.4-8,0.1c-5.2-0.6-10.3-2.2-15.6-2.7c-5.2-0.6-10.3,0.1-15.2,1.5
			c-5.6,1.7-11,4.2-16.2,6.7C13.2,294.9,13.7,295.6,14.2,295.4z"/>
		<path class="st1" d="M70.3,318.3c3.2-1.4,6.4-2.9,9.5-4.6c1.6-0.9,3.2-1.9,4.8-2.8c1.4-0.9,2.8-2.2,4.4-2.9
			c1.7-0.7,4.4,0.6,6.1,1.2c1.9,0.6,3.7,1.1,5.5,1.7c3.8,1.2,7.6,2.3,11.3,3.5c0.5,0.2,0.7-0.6,0.2-0.8c-4-1.2-8.1-2.5-12.1-3.7
			c-1.9-0.6-3.9-1.2-5.8-1.8c-1.5-0.5-3.4-1.4-5-1c-1.5,0.4-2.8,1.6-4,2.5c-1.6,1-3.3,2.1-4.9,3c-3.3,1.9-6.8,3.6-10.4,5.1
			C69.4,317.8,69.9,318.5,70.3,318.3z"/>
		<path class="st1" d="M104.7,319.2c2.1-1,4.2-2.1,6.3-3.2c1.9-1,4-2.3,6.2-2.5c2.2-0.2,4,1.2,5.9,2.1c1.6,0.7,3.4,1.1,5.2,1.2
			c4.2,0.2,8-1.9,12.1-1.6c3.3,0.2,6.6,2.9,9.9,1.2c0.5-0.2,0.1-1-0.4-0.7c-2,1.1-4.2,0-6.2-0.6c-1.7-0.6-3.4-0.8-5.2-0.6
			c-4.3,0.4-8.2,2.2-12.5,1.2c-3.6-0.8-6.4-3.8-10.3-2.7c-1.8,0.5-3.5,1.5-5.1,2.3c-2.1,1-4.2,2.1-6.3,3.2
			C103.9,318.7,104.3,319.4,104.7,319.2z"/>
		<path class="st1" d="M120.9,313.2c-1.7-1.5-3.3-3.1-4.5-5.1c-0.6-0.9-1.1-1.8-1.6-2.7c-0.2-0.5-0.5-0.9-0.7-1.4
			c-0.2-0.4-0.3-0.7-0.5-1.1c-0.2-0.4-0.1-0.8,0.3-1.2c0.2-0.1,0.5-0.2,0.7-0.3c-3-4.5-5-9.6-5.6-14.9c-0.2,0.1-0.5,0.2-0.7,0.3
			c0.5,0.6,1,1.3,1.5,1.9c0.3,0.4,0.9-0.1,0.7-0.5c-4.8-8.6-7.4-18.3-7.4-28.1c-0.2,0.1-0.5,0.2-0.7,0.3c1.9,1.5,3.3,3.4,4.2,5.6
			c0.2-0.1,0.5-0.2,0.7-0.3c-2.2-4.6-2.6-9.7-1.3-14.6c-0.3,0-0.5,0-0.8,0c5.7,16.2,11.3,32.4,17,48.6c0.2,0.5,1,0.3,0.8-0.2
			c-2.8-8.3-4.3-17-4.2-25.8c-0.2,0.1-0.5,0.2-0.7,0.3c1.7,1.5,2.7,3.4,3.1,5.7c0.1,0.5,0.8,0.4,0.8-0.1c-0.1-1.7-0.2-3.4-0.3-5.1
			c-0.2,0.1-0.4,0.2-0.6,0.4c1.5,0.9,1.7,3.4,2.2,5c0.5,1.7,1,3.3,1.5,5c1,3.4,2.1,6.8,3.1,10.2c2.1,6.8,4.2,13.7,6.2,20.5
			c0.2,0.5,1,0.3,0.8-0.2c-2.2-7.3-4.5-14.7-6.7-22.1c-1.1-3.6-2.2-7.2-3.3-10.8c-0.6-1.9-1.1-3.7-1.7-5.5c-0.4-1.1-0.8-2.2-1.8-2.8
			c-0.2-0.2-0.6,0.1-0.6,0.4c0.1,1.7,0.2,3.4,0.3,5.1c0.3,0,0.6-0.1,0.8-0.1c-0.4-2.4-1.6-4.4-3.3-6c-0.3-0.2-0.7-0.1-0.7,0.3
			c-0.1,8.9,1.3,17.7,4.2,26.1c0.3-0.1,0.5-0.1,0.8-0.2c-5.7-16.2-11.3-32.4-17-48.6c-0.1-0.4-0.7-0.4-0.8,0
			c-1.3,5.1-0.8,10.4,1.4,15.2c0.2,0.4,0.9,0.1,0.7-0.3c-0.9-2.4-2.4-4.4-4.4-6c-0.3-0.2-0.7-0.1-0.7,0.3c0.1,10,2.7,19.8,7.6,28.5
			c0.2-0.2,0.4-0.3,0.7-0.5c-0.5-0.6-1-1.3-1.5-1.9c-0.2-0.3-0.7-0.1-0.7,0.3c0.6,5.5,2.6,10.7,5.7,15.3c0.3,0.4,0.8,0.1,0.7-0.3
			c-0.1-0.8-1.1-1.1-1.7-0.6c-1.2,0.8,0,2.8,0.4,3.7c1.6,3.5,3.9,6.6,6.8,9.1C120.7,314.1,121.3,313.5,120.9,313.2z"/>
		<path class="st1" d="M92,251.2c-0.4-5.2,9.1-2.2,11.7-1.7c4.3,0.8,8.6,1.6,12.9,2.4c8.6,1.6,17.2,3.2,25.8,4.8
			c0.5,0.1,0.7-0.7,0.2-0.8c-9.9-1.9-19.7-3.7-29.6-5.5c-4.8-0.9-9.7-1.8-14.5-2.7c-1.7-0.3-3.8-0.7-5.4,0.2c-1.2,0.7-2.1,1.9-2,3.3
			C91.2,251.7,92,251.7,92,251.2z"/>
		<path class="st1" d="M136.7,255.8c2.9,0.3,4.6-2.4,6.9-3.8c1.9-1.1,3.6-0.2,5.5,0.1c2.2,0.4,4.4,0.5,6.6,0.2
			c0.5-0.1,0.5-0.9,0-0.8c-2.5,0.3-5,0.2-7.4-0.4c-1.5-0.4-2.8-0.9-4.3-0.3c-2.6,1-4.4,4.4-7.4,4.1
			C136.2,254.9,136.2,255.8,136.7,255.8z"/>
		<path class="st1" d="M189.5,308.9c6.6-2.3,13.3-4.6,20.2-6.3c7.2-1.7,14.4-2.4,21.8-2.2c7.3,0.2,14.5,1,21.7,1.7
			c7.3,0.7,14.6,1.4,21.8,2c8.4,0.8,16.7,1.5,25.1,2.3c0.5,0.1,0.5-0.8,0-0.8c-14.9-1.4-29.8-2.8-44.8-4.2
			c-14.4-1.3-28.8-3.3-43.1-0.3c-7.9,1.6-15.4,4.3-23,6.9C188.8,308.3,189,309.1,189.5,308.9z"/>
		<path class="st1" d="M218.7,281.7c5-1,9.6-3.1,14.3-5c5-2,10.1-3.4,15.4-3.8c5.4-0.5,10.9-0.2,16.3,0.1c5.4,0.3,10.8,0.7,16.3,1.1
			c6.3,0.5,12.7,1,19,1.5c0.5,0.1,0.5-0.8,0-0.8c-11.2-1-22.5-1.8-33.7-2.6c-10.7-0.7-21.3-1-31.5,2.8c-5.4,2-10.7,4.6-16.4,5.8
			C218,281,218.2,281.8,218.7,281.7z"/>
		<path class="st1" d="M282.5,249.9c4-3,8.1-6,12.6-8.2c2.2-1.1,4.5-2,6.9-2.2c2.6-0.2,5.3,0.3,7.8,0.6c5.2,0.6,10.5,1,15.7,1.4
			c3.5,0.2,7.9,0.7,10.4-2.3c0.3-0.4-0.2-1-0.6-0.6c-2.8,3.5-8.7,2.2-12.5,1.9c-5.3-0.4-10.5-0.9-15.7-1.5c-2.2-0.3-4.5-0.5-6.7-0.1
			c-2.2,0.4-4.3,1.3-6.3,2.3c-4.3,2.3-8.3,5.1-12.1,8C281.7,249.5,282.1,250.2,282.5,249.9z"/>
		<path class="st1" d="M130.2,245.3c3.9-3,7.9-5.9,11.8-8.8c3.8-2.8,7.3-5.8,12.2-6c4.6-0.2,9.4,0.3,14,0.7c5,0.4,9.9,1,14.9,1.7
			c4.2,0.6,9.1,2.1,13,0c0.5-0.2,0.1-1-0.4-0.7c-2,1.1-4.3,1.1-6.5,0.8c-2.4-0.3-4.8-0.7-7.2-1.1c-4.6-0.6-9.3-1.2-14-1.5
			c-4.6-0.4-9.4-0.9-14-0.7c-4.3,0.2-7.5,2.5-10.8,5c-4.5,3.3-8.9,6.7-13.3,10C129.3,245,129.8,245.7,130.2,245.3z"/>
		<path class="st1" d="M285.9,274.5c0.2-1.8,0.6-3.6,1.1-5.4c0.2-0.8,0.5-1.7,0.8-2.5c0.2-0.5,0.7-1.3,1.4-1.1
			c0.4,0.1,0.5,1.4,0.6,1.6c0.1,0.4,0.7,0.6,0.8,0.1c1.3-4.2,2.8-8.9,6.8-11.3c-0.2-0.1-0.4-0.2-0.6-0.4c0,0.7,0,1.4,0,2.1
			c0,0.4,0.6,0.6,0.8,0.2c2.5-5.1,5.1-10.5,10.1-13.6c-0.2-0.2-0.4-0.3-0.6-0.5c-2.5,6.4-5.4,12.7-8.7,18.8
			c-0.2,0.4,0.3,0.9,0.7,0.5c1.9-2.2,3.7-4.4,6.2-6c-0.2-0.2-0.4-0.4-0.6-0.6c-3.1,6.5-6.4,12.8-10.1,18.9c-0.3,0.5,0.4,0.9,0.7,0.4
			c3.7-6.1,7-12.4,10.1-18.9c0.2-0.3-0.2-0.8-0.6-0.6c-2.5,1.7-4.4,3.9-6.3,6.2c0.2,0.2,0.4,0.3,0.7,0.5c3.3-6.1,6.3-12.5,8.8-19
			c0.1-0.3-0.3-0.6-0.6-0.5c-5.1,3.2-7.9,8.6-10.4,13.9c0.2,0.1,0.5,0.1,0.8,0.2c0-0.7,0-1.4,0-2.1c0-0.3-0.4-0.5-0.6-0.4
			c-4.1,2.6-5.8,7.4-7.1,11.8c0.3,0,0.6,0.1,0.8,0.1c-0.1-1.4-1.4-3.8-3-2c-0.8,0.9-1.1,2.4-1.4,3.5c-0.6,1.8-0.9,3.7-1.2,5.6
			C285,274.8,285.8,275.1,285.9,274.5z"/>
		<path class="st1" d="M92.5,227.9c2.2-1.2,4.3-2.3,6.7-3c2.5-0.7,5-0.4,7.5-0.1c5,0.7,10,1.3,15,2c0.5,0.1,0.5-0.7,0-0.8
			c-5.3-0.7-10.7-1.5-16-2.1c-2.5-0.3-4.8-0.3-7.2,0.4c-2.3,0.7-4.4,1.8-6.4,2.9C91.6,227.5,92,228.2,92.5,227.9z"/>
		<path class="st1" d="M260.8,40.6c2-1.7,4.8-1.4,7-0.3c1.7,0.8,3,2.4,5,2.5c1.8,0.1,3.3-1.2,4.8-2c1-0.5,2.1-0.9,3.2-0.6
			c1.2,0.2,2.3,1,3.5,1.5c3.7,1.6,6.2-0.6,9.4-2.4c0.9-0.5,1.8-0.9,2.9-1c1.3-0.1,2.5,0.5,3.6,1c1.8,0.8,3.2,1.1,5.1,0.3
			c1.9-0.7,3.5-0.6,5.4,0.1c1.2,0.4,2.4,1,3.7,1.3c1.9,0.4,4,0.3,5.4-1.1c0.4-0.4-0.2-1-0.6-0.6c-1.9,1.9-4.7,1-6.8,0.2
			c-2.2-0.8-4.4-1.7-6.7-0.9c-1.4,0.6-2.4,0.9-4,0.4c-1.1-0.4-2-0.9-3.1-1.2c-1.6-0.5-3.2-0.2-4.6,0.5c-1.7,0.9-3.2,2.2-5,2.9
			c-2.4,0.9-4.2-0.3-6.4-1.2c-1.6-0.7-3.1-0.8-4.6-0.1c-1.9,0.9-3.8,2.7-6,1.9c-1.2-0.4-2.1-1.4-3.2-2c-0.9-0.5-1.9-0.9-2.9-1
			c-2-0.4-3.9,0-5.4,1.3C259.8,40.4,260.5,41,260.8,40.6z"/>
		<path class="st1" d="M270.8,59.5c0.5,0,0.5-0.8,0-0.8S270.3,59.5,270.8,59.5z"/>
		<path class="st1" d="M276.3,62.5c1.3-2.3,4.4-1.2,6.3-0.4c1.9,0.8,3.6,1.2,5.6,0.6c1.7-0.6,3.2-1.7,4.9-2.1
			c2.4-0.6,3.7,1.5,5.9,1.9c3.4,0.7,6.8-3,10-1.4c0.9,0.4,1.5,1,2.5,0.9c1-0.1,1.9-0.5,2.8-0.7c2.6-0.6,5.4-0.1,7.7,1.2
			c0.5,0.2,0.9-0.5,0.4-0.7c-1.5-0.8-3.1-1.3-4.8-1.5c-0.9-0.1-1.7-0.1-2.6,0.1c-1,0.1-2,0.6-3,0.8c-1.4,0.2-1.9-0.4-3-0.9
			c-0.6-0.2-1.2-0.3-1.7-0.3c-1.4,0.1-2.7,0.6-4,1.1c-1.6,0.6-3.4,1.2-5,0.4c-1.4-0.7-2.5-1.7-4.2-1.7c-3.4,0-5.8,3.3-9.5,2.3
			c-2.7-0.7-7-3.4-9,0.2C275.4,62.5,276.1,62.9,276.3,62.5z"/>
		<path class="st1" d="M249.5,95.5c2-1.5,4.2-1.5,6.4-0.5c1.2,0.6,2.5,1.1,3.7,0.3c0.7-0.4,1.2-1.1,2-1.4c0.9-0.3,1.9-0.1,2.8,0.1
			c1.6,0.4,3.1,1.1,4.7,1.2c1.9,0.1,3.7-0.7,5.6-0.9c2-0.2,3.4,1,5.3,1.3c1.8,0.2,3.2-1.2,5.1-0.9c2.2,0.3,4.4,1.1,6.6,1.6
			c0.5,0.1,0.7-0.7,0.2-0.8c-2.3-0.6-4.7-1.5-7-1.7c-2-0.2-3.4,1.4-5.4,0.8c-1.9-0.6-3.2-1.4-5.2-1.1c-2.1,0.3-4.1,1.1-6.3,0.7
			c-1.7-0.4-3.3-1.2-5.1-1.3c-0.6,0-1.3,0-1.9,0.3c-0.8,0.3-1.2,0.9-1.9,1.4c-1.7,1-3.9-1.1-5.7-1.2c-1.7-0.1-3.2,0.4-4.6,1.5
			C248.5,95.3,249.1,95.9,249.5,95.5z"/>
		<path class="st1" d="M90.9,35.3c0.5,0,0.5-0.8,0-0.8C90.3,34.4,90.3,35.3,90.9,35.3z"/>
		<path class="st1" d="M93.3,35.9c0.5-2.5,3.8-0.9,5-0.1c1.4,0.9,2.8,1.6,4.5,1.2c1.8-0.5,3-2.1,5-2.2c1.9-0.1,3.7,0.8,5.5,1.3
			c1.5,0.5,3.1,0.8,4.7,0.4c1.9-0.4,3.4-1.7,5.3-2.1c3.7-0.6,7.1,2.4,10.8,1.2c0.5-0.2,0.3-1-0.2-0.8c-3.9,1.2-7.7-2.2-11.7-1
			c-2,0.6-3.8,2.1-6,2c-2.1-0.1-4-1.1-5.9-1.6c-1.5-0.4-3.1-0.5-4.6,0.2c-0.9,0.4-1.6,1-2.5,1.4c-1.4,0.7-2.6,0.3-3.9-0.4
			c-1.4-0.8-2.6-1.7-4.3-1.6c-1.2,0.1-2.2,0.7-2.5,1.9C92.4,36.2,93.2,36.4,93.3,35.9z"/>
		<path class="st1" d="M95.8,197.2c3.3-1.4,6.6,1.1,9.9,1.2c1.7,0.1,3.4-0.3,5.1-0.7c2.1-0.4,4-0.4,6,0.4c1.2,0.5,2.4,0.9,3.7,0.4
			c0.7-0.3,1.3-0.7,2-1c0.8-0.3,1.6-0.3,2.5-0.3c3,0.1,5.9,1.1,8.7-0.2c0.5-0.2,0.1-0.9-0.4-0.7c-3,1.4-6.4-0.1-9.5,0.2
			c-1.5,0.2-2.5,1-3.9,1.5c-1.7,0.5-3.3-0.9-5-1.2c-3.6-0.6-6.9,1.4-10.5,0.7c-2.9-0.6-5.8-2.3-8.7-1
			C95.1,196.6,95.3,197.4,95.8,197.2z"/>
		<path class="st2" d="M36,156.5c2.4,0,4.4-2,4.4-4.4c0-2.4-2-4.4-4.4-4.4s-4.4,2-4.4,4.4C31.6,154.5,33.6,156.5,36,156.5z"/>
		<path class="st2" d="M290.5,126.5c1.7,0,3.1-1.4,3.1-3.1c0-1.7-1.4-3.1-3.1-3.1c-1.7,0-3.1,1.4-3.1,3.1
			C287.4,125.1,288.8,126.5,290.5,126.5z"/>
		<path class="st2" d="M262.8,19.7c1.3,0,2.3-1,2.3-2.3s-1-2.3-2.3-2.3c-1.3,0-2.3,1-2.3,2.3S261.6,19.7,262.8,19.7z"/>
		<path class="st2" d="M162.9,216.1c1.6,0,2.8-1.3,2.8-2.8c0-1.6-1.3-2.8-2.8-2.8c-1.6,0-2.8,1.3-2.8,2.8
			C160.1,214.8,161.3,216.1,162.9,216.1z"/>
		<path class="st2" d="M32.8,56.1c1.8,0,3.2-1.4,3.2-3.2c0-1.8-1.4-3.2-3.2-3.2c-1.8,0-3.2,1.4-3.2,3.2C29.5,54.7,31,56.1,32.8,56.1
			z"/>
		<path class="st2" d="M144.4,169.5c1,0,1.9-0.8,1.9-1.8s-0.8-1.9-1.9-1.9c-1,0-1.9,0.8-1.9,1.9S143.4,169.5,144.4,169.5z"/>
		<path class="st2" d="M319.4,185.2c1.6,0,2.8-1.3,2.8-2.8c0-1.6-1.3-2.8-2.8-2.8c-1.6,0-2.8,1.3-2.8,2.8
			C316.6,183.9,317.8,185.2,319.4,185.2z"/>
		<path class="st2" d="M11.7,231.8c1.2,0,2.1-0.9,2.1-2.1s-0.9-2.1-2.1-2.1c-1.2,0-2.1,0.9-2.1,2.1S10.6,231.8,11.7,231.8z"/>
		<path class="st3" d="M97.7,68.7c-2.4,4.9-4.8,9.8-7.2,14.7c10,13.3,19.9,26.6,29.9,40c2.6-3.9,5.1-7.9,7.7-11.9
			c6.1-9.5,11.8-18.9,17.4-28.2c-1.9-4.8-3.8-9.6-5.7-14.4c-1.2-0.6-2.4-1.2-3.7-1.9c-11.8,0-23.6,0.1-35.3,0.1
			C99.7,67.6,98.7,68.2,97.7,68.7z"/>
		<path d="M90.8,83.5c2.1-4.6,4.3-9.2,6.5-13.8c0.2-0.5-0.5-0.9-0.7-0.4c-2.2,4.6-4.4,9.1-6.5,13.8C89.9,83.6,90.6,84,90.8,83.5z"/>
		<path d="M90.3,84c9.7,13.3,19.7,26.5,29.8,39.6c0.3,0.4,0.9-0.2,0.6-0.6c-10.1-13-20-26.1-29.7-39.4C90.7,83.2,90,83.6,90.3,84z"
			/>
		<path d="M97.5,69.3c1.2-0.6,2.3-1.2,3.5-1.9c0.5-0.2,0.1-1-0.4-0.7c-1.2,0.6-2.3,1.2-3.5,1.9C96.6,68.9,97,69.6,97.5,69.3z"/>
		<path d="M101.6,67.5c8.6,0,17.3,0,25.9,0c0.5,0,0.5-0.8,0-0.8c-8.6,0-17.3,0-25.9,0C101.1,66.7,101.1,67.5,101.6,67.5z"/>
		<path d="M145.8,83.2c-1.7-4.6-3.5-9.2-5.4-13.8c-0.2-0.5-1-0.3-0.8,0.2c1.9,4.6,3.7,9.1,5.4,13.8C145.2,83.9,146,83.7,145.8,83.2z
			"/>
		<path d="M144.9,83.6c-8.1,13.3-16.4,26.4-24.8,39.5c-0.3,0.4,0.4,0.9,0.7,0.4c8.4-13.1,16.7-26.2,24.8-39.5
			C145.9,83.5,145.2,83.1,144.9,83.6z"/>
		<path d="M139.9,68.6c-1-0.6-1.9-1.2-2.9-1.9c-0.4-0.3-0.9,0.4-0.4,0.7c1,0.6,1.9,1.2,2.9,1.9C140,69.6,140.4,68.9,139.9,68.6z"/>
		<path d="M136.1,66.6c-7.2,0-14.4,0-21.6,0c-0.5,0-0.5,0.8,0,0.8c7.2,0,14.4,0,21.6,0C136.6,67.4,136.6,66.6,136.1,66.6z"/>
		<path d="M91.2,84c5-2.1,9.9-4.3,14.9-6.4c0.5-0.2,0.1-0.9-0.4-0.7c-5,2.1-9.9,4.3-14.9,6.4C90.3,83.5,90.7,84.2,91.2,84z"/>
		<path d="M97.6,69.1c3,0.5,6,1.1,9,2c0.5,0.1,0.7-0.7,0.2-0.8c-3-0.9-5.9-1.5-9-2C97.3,68.2,97.1,69,97.6,69.1z"/>
		<path d="M106.4,70.9c0.7,2.1,1.2,4.1,1.7,6.3c0.1,0.5,0.9,0.3,0.8-0.2c-0.5-2.1-1.1-4.2-1.7-6.3C107,70.2,106.2,70.4,106.4,70.9z"
			/>
		<path d="M107.7,71c7.4,0,14.8,0,22.2,0c0.5,0,0.5-0.8,0-0.8c-7.4,0-14.8,0-22.2,0C107.2,70.2,107.2,71,107.7,71z"/>
		<path d="M129.5,71.1c-0.3,1.5-0.6,3.1-0.8,4.6c-0.1,0.5,0.7,0.7,0.8,0.2c0.3-1.5,0.6-3.1,0.8-4.6
			C130.4,70.8,129.6,70.6,129.5,71.1z"/>
		<path d="M108.6,77.2c6.5,0,12.9,0,19.5,0c0.5,0,0.5-0.8,0-0.8c-6.5,0-13,0-19.5,0C108.1,76.4,108.1,77.2,108.6,77.2z"/>
		<path d="M130.7,71c3-0.6,6-1.3,9-1.9c0.5-0.1,0.3-0.9-0.2-0.8c-3,0.6-6,1.3-9,1.9C130,70.3,130.2,71.1,130.7,71z"/>
		<path d="M129.3,77c2.8,0.4,5.4,2,7.9,3.2c2.7,1.3,5.4,2.5,8.1,3.8c0.5,0.2,0.9-0.5,0.4-0.7c-2.9-1.4-5.7-2.7-8.6-4
			c-2.4-1.2-5-2.6-7.6-3.1C129,76.1,128.8,76.9,129.3,77z"/>
		<path d="M108.8,78.5c3.6,14.8,7.2,29.6,10.8,44.4c0.1,0.5,0.9,0.3,0.8-0.2c-3.6-14.8-7.2-29.6-10.8-44.4
			C109.5,77.7,108.7,78,108.8,78.5z"/>
		<path d="M128.2,79.5c-3.4,14.2-6.2,28.7-8.3,43.2c-0.1,0.5,0.7,0.7,0.8,0.2c2.2-14.5,5-28.9,8.3-43.2
			C129.1,79.2,128.3,79,128.2,79.5z"/>
		<path d="M128.4,51.8c1.2-3.2,1.9-6.5,2-9.9c0-0.5-0.8-0.5-0.8,0c-0.1,3.3-0.8,6.6-2,9.7C127.4,52.1,128.2,52.3,128.4,51.8z"/>
		<path d="M134.1,52.4c2.7-3,5.6-5.7,9-7.9c0.4-0.3,0-1-0.4-0.7c-3.4,2.3-6.5,5-9.2,8C133.2,52.2,133.7,52.8,134.1,52.4z"/>
		<path d="M139.6,57.5c3.4-1,7-1.4,10.5-1.1c0.5,0,0.5-0.8,0-0.8c-3.7-0.3-7.3,0.1-10.8,1.2C138.8,56.9,139,57.7,139.6,57.5z"/>
		<path class="st1" d="M81.3,38.1c0.3,5.5-2.7,10.7-7.7,13.1c-0.3,0.1-0.2,0.6,0,0.7c4.5,2.7,6.6,7.7,7.8,12.6
			c0.1,0.5,0.9,0.3,0.8-0.2C80.9,59.2,78.7,54,74,51.2c0,0.2,0,0.5,0,0.7c5.2-2.5,8.4-8.1,8.1-13.8C82.1,37.6,81.2,37.6,81.3,38.1z"
			/>
		<path class="st1" d="M81.6,38.1c-0.4,5.7,2.9,11.3,8.1,13.8c0-0.2,0-0.5,0-0.7c-4.7,2.8-6.9,8-8.2,13.1c-0.1,0.5,0.7,0.7,0.8,0.2
			c1.2-4.9,3.3-9.9,7.8-12.6c0.2-0.1,0.3-0.6,0-0.7c-4.9-2.4-8-7.6-7.7-13.1C82.4,37.6,81.6,37.6,81.6,38.1z"/>
		<path d="M216.3,245.5c1-0.4,2.3-1,3.8-1.9c2.5-1.4,3.8-2.1,4.6-3.3c1-1.5,0.6-2.3,1.9-3.8c0.2-0.2,1.1-1.2,2.3-1.7
			c2-0.9,4,0.2,7.1,1.3c2.9,1,5.2,1.5,9.8,2.6c1.8,0.4,4,0.8,7.3,1.8c0.9,0.3,1.6,0.5,2.1,0.7c0.1,0.6,0.1,2.1-0.9,3.4
			c-0.4,0.6-1.1,1.1-2,1.5c-2.2,1-4.4,0.9-6.2,0.8c-3.9-0.2-2.3,0.4-11.4,0.6c-2,0-3.6,0-4.8,0c-1.4,1-2.8,2-4.3,3
			c-2.4,1.8-4.8,3.5-7,5.3C217.9,252.3,217.1,248.9,216.3,245.5z"/>
		<path class="st3" d="M204.8,210.1c-2,1-2.2,1.4-9.6,7.7c-11.6,9.8-12.8,10.3-23.3,19.5c-10,8.7-11.9,10.9-13.8,13.8
			c-4.8,7.3-5.8,13.3-6.1,16.3c-0.4,4-1,9.5,2.5,13.9c2.2,2.7,5.1,3.9,6.1,4.2c2.9,1.1,5.3,1,9.6,0.7c5.7-0.4,10-1.5,11.8-2
			c1.9-0.5,6.3-1.8,11.7-4.5c5.1-2.5,7.4-4.4,14.4-9.1c3.1-2.1,7.7-5.2,13.6-8.7c0.4-2.8,0.1-4.9-0.2-6.3c-0.7-3.2-2.2-5.4-3.8-7.8
			c-1.3-2-2.6-3.5-3.5-4.5c2.1-1.6,4.8-3.8,7.6-6.9c1.9-2,4.9-5.3,7.4-9.9c3.1-5.6,6.2-11.3,4.2-15.2
			C230.1,205,215.2,204.7,204.8,210.1z"/>
		<path class="st4" d="M229.5,213.1c-1.6,3.6-4.2,8.8-8.3,14.3c-6,8-12.1,12.4-21.3,18.9c-26,18.5-33,22.7-32.2,24.5
			c1.1,2.4,15.7-1.9,17.8-2.5c15.6-4.6,27-11.7,34.2-16.8c-1.8-2.8-3.7-5.6-5.5-8.3c2.2-1.6,5.3-4.1,8.2-7.9c1.6-2.1,4-5.3,5.6-10.1
			C229.7,220.3,229.8,216.1,229.5,213.1z"/>
		<path d="M204.6,210.1c-9.9,7.3-19.5,15-28.7,23c-4.4,3.8-8.9,7.7-13,11.8c-3.7,3.6-7.1,7.7-9.2,12.5c-2.2,5-2.8,10.7-2.2,16.1
			c0.4,4.4,2.1,8.9,6.1,11.2c4.3,2.4,9.6,2.2,14.3,1.7c5.8-0.6,11.5-2,16.9-4.2c12-4.9,21.5-14,32.8-20.1c0.5-0.2,0.1-1-0.4-0.7
			c-9.5,5.1-17.6,12.3-27.1,17.4c-5,2.7-10.3,4.6-15.9,5.8c-5.1,1.1-10.9,1.9-16.1,0.9c-2.4-0.5-4.8-1.5-6.5-3.3
			c-1.7-1.8-2.6-4.1-3.1-6.5c-1-5.2-0.6-11.1,1.2-16.2c1.7-5,5.1-9.3,8.7-13c3.8-3.9,7.9-7.5,12-11c9.8-8.6,20-16.8,30.5-24.6
			C205.5,210.5,205.1,209.8,204.6,210.1z"/>
		<path d="M177.5,266.7c9.1-3.5,17.3-8.8,25.1-14.5c3.8-2.8,7.6-5.7,11.4-8.7c3.7-2.9,7.2-6,10.1-9.7c0.3-0.4-0.4-0.8-0.7-0.4
			c-2.9,3.8-6.6,6.9-10.4,9.8c-3.7,2.9-7.4,5.8-11.3,8.6c-7.6,5.6-15.6,10.7-24.5,14.1C176.8,266.1,177,266.9,177.5,266.7z"/>
		<path d="M213.6,243.4c5.3,4.5,8.2,11.4,7.4,18.3c-0.1,0.5,0.8,0.5,0.8,0c0.7-7.1-2.2-14.3-7.7-18.9
			C213.8,242.5,213.2,243.1,213.6,243.4z"/>
		<path d="M221,254.1c1.6-0.5,3-1.8,4.3-2.7c1.7-1.2,3.3-2.3,5-3.5c0.4-0.3,0-1-0.4-0.7c-1.5,1.1-3,2.1-4.5,3.2
			c-1.4,1-2.9,2.5-4.5,3C220.2,253.4,220.4,254.2,221,254.1z"/>
		<path d="M216.4,245.8c3.1-1.3,6-3.1,8.6-5.2c0.4-0.4-0.2-0.9-0.6-0.6c-2.5,2.1-5.2,3.8-8.2,5C215.7,245.3,215.9,246.1,216.4,245.8
			z"/>
		<path d="M224.7,240.2c0.5,0,0.5-0.8,0-0.8C224.2,239.4,224.2,240.2,224.7,240.2z"/>
		<path d="M225.7,239.2c0.5-1.1,1-2.3,1.9-3.2c1.2-1.2,2.6-1,4.1-0.7c2.8,0.6,5.6,1.5,8.4,2.3c2.6,0.7,5.1,1.4,7.8,1.7
			c1.6,0.2,2.9,0.4,4.2,1c1,0.5,1.9,1,3,1.1c0.5,0.1,0.5-0.8,0-0.8c-1.5-0.1-2.7-1.2-4.2-1.7c-1.4-0.5-3-0.4-4.5-0.7
			c-3.3-0.5-6.4-1.5-9.6-2.5c-1.5-0.4-3.1-0.9-4.7-1.2c-1.2-0.2-2.4-0.6-3.5-0.2c-2,0.6-3,2.8-3.7,4.6
			C224.7,239.5,225.5,239.7,225.7,239.2z"/>
		<path d="M230.1,248.5c5.9-0.9,11.8-1,17.8-1.1c2.1,0,4.3-0.3,5.9-1.6c1.4-1.2,2.2-2.8,1.8-4.6c-0.1-0.5-0.9-0.3-0.8,0.2
			c0.5,2.5-1.7,4.4-4,4.9c-2.3,0.6-4.8,0.3-7.1,0.3c-4.6,0.1-9.2,0.5-13.8,1.2C229.4,247.7,229.6,248.5,230.1,248.5z"/>
		<path d="M251.1,243c2-1.5,4.1-2.9,6.2-4.4c0.1-0.9,0.6-3,2.3-4.7c0.5-0.5,1.7-1.7,3.4-2.1c1.8-0.4,3.2,0.5,4.8,1.2
			c2.5,1.2,5,1.6,9.9,2.5c3.8,0.7,5.8,1.1,8.6,0.9c3.8-0.2,6.4-1.2,8.1,0.4c0.2,0.2,0.9,0.9,0.8,1.8c-0.1,1.2-1.3,1.9-2.3,2.5
			c-4.3,2.5-6.8,3.2-6.8,3.2c-6.1,1.8-9.2,2.7-11.9,2.9c-2.2,0.2-5.2,0.2-8.9-0.3c-1.1,3.7-4.3,6.1-7.4,5.9
			C253.7,252.5,250.1,248.1,251.1,243z"/>
		<path class="st3" d="M211.4,218.6c0.6-1.9,1.7-4.2,3.9-5c1.4-0.5,2.7-0.2,3.1-0.1c2.6,0.6,7.9-0.3,18.4-2.1
			c5.2-0.9,11.8-2.2,19.5-4.1c0,1.4,0,3.3-0.1,5.4c-0.2,4.8-0.7,8.5-0.8,9.3c-0.5,3.4-1.3,9.1-3.8,16c-0.6,1.8-1.3,3.2-1.7,4.2
			c1.1,0.5,2.2,1.2,3.4,2.1c4.7,3.7,6,9,6.5,11.2c-0.7,0.8-1.7,2-2.9,3.3c-5.1,5.5-9.9,8.5-19,14.1c-5.6,3.5-9.7,6-16.2,9.8
			c-8,4.7-14.4,8.3-22.4,10.6c-2,0.6-5.1,1.4-9.1,0.9c-1.9-0.2-5.4-0.6-8.8-3c-4.3-3.1-5.6-7.6-6.2-9.6c-1.2-4.4-0.8-8.6,0.4-13
			c0.8-3,3.7-13.1,13.8-24.5c2-2.3,7.8-7.4,19.2-17.6c2.8-2.5,5-4.5,6.6-5.8C213.7,220.3,212.6,219.4,211.4,218.6z"/>
		<path class="st4" d="M249,210.9c-0.6,2.4-1.7,5.9-3.2,10.1c-14.1,37.4-45.7,53.5-43.2,57.6c1.9,3,19.9-4.4,32.9-12.3
			c9.7-5.9,17-12.1,21.8-16.8c-0.8-1.1-2-2.7-3.8-4.1c-1.7-1.4-3.4-2.3-4.6-2.8c0.9-1.2,2-3.1,3-5.5c0.6-1.5,1.2-3.2,1.9-6.6
			c1.2-5.3,1.6-9.6,1.8-10.9c0.3-3.2,0.6-7.3,0.6-12.2C253.8,208.5,251.4,209.7,249,210.9z"/>
		<path d="M255.8,207.3c0,5.2-0.3,10.4-1,15.6c-0.7,4.7-1.5,9.5-3.2,13.9c-1.9,4.8-5,8.3-8.9,11.5c-3.9,3.3-7.9,6.6-11.8,9.9
			c-4.5,3.8-9.1,7.5-13.6,11.3c-0.4,0.3,0.2,0.9,0.6,0.6c8.3-6.9,16.7-13.8,24.9-20.8c3.7-3.1,7-6.3,9-10.7c1.9-4.3,2.9-9,3.6-13.7
			c0.9-5.9,1.4-11.8,1.3-17.7C256.6,206.8,255.8,206.8,255.8,207.3z"/>
		<path d="M211.8,219.3c1.1,0.6,2.3,1.2,3.4,1.8c0.5,0.2,0.9-0.5,0.4-0.7c-1.1-0.6-2.3-1.2-3.4-1.8
			C211.8,218.4,211.4,219.1,211.8,219.3z"/>
		<path d="M215.3,220.8c-9.9,8-20.2,15.9-28.4,25.7c-7.1,8.4-12.9,19-12.9,30.2c0,4.9,1.4,10.1,5,13.6c3.7,3.5,8.9,4.9,13.9,4.7
			c6.1-0.3,11.9-2.7,17.3-5.4c5.8-2.8,11.3-6.2,16.9-9.6c11.4-6.9,24.1-13.3,32.7-23.9c0.3-0.4-0.2-1-0.6-0.6
			c-7.2,8.8-17.2,14.5-26.8,20.3c-5.3,3.2-10.5,6.5-15.9,9.5c-5.3,3-10.8,5.8-16.6,7.5c-5.5,1.6-11.6,1.9-16.8-0.8
			c-5-2.6-7.5-7.6-8.1-13.1c-1-11,4.5-22,11.3-30.4c8.4-10.5,19.3-18.8,29.7-27.2C216.3,221.1,215.7,220.5,215.3,220.8z"/>
		<path d="M249.6,242.7c5.2,2.5,8.8,7.4,9.7,13.1c0.1,0.5,0.9,0.3,0.8-0.2c-0.9-5.9-4.7-11-10-13.6
			C249.5,241.7,249.1,242.4,249.6,242.7z"/>
		<path d="M251.2,243.4c1.1-0.4,2-1.2,2.9-1.9c1.1-0.9,2.2-1.7,3.3-2.5c0.4-0.3,0-1.1-0.4-0.7c-1,0.7-2,1.5-3,2.3
			c-1,0.7-1.9,1.7-3.1,2.1C250.5,242.8,250.7,243.6,251.2,243.4z"/>
		<path d="M257.9,238.6c0.6-1.6,1.2-3.2,2.1-4.7c1.2-2,3-1.8,5.1-1.3c3.2,0.8,6.2,2,9.4,2.7c6.2,1.4,12.6,1.9,19,1.4
			c0.5,0,0.5-0.9,0-0.8c-7.5,0.5-15.1-0.3-22.3-2.3c-1.7-0.5-3.4-1.1-5.2-1.6c-1.3-0.4-2.9-0.8-4.3-0.6c-1.2,0.2-2,1.2-2.6,2.2
			c-0.9,1.5-1.5,3.1-2.1,4.7C256.9,238.9,257.7,239.1,257.9,238.6z"/>
		<path d="M259.1,251.9c2.1-1.6,4.1-3.1,6.2-4.7c0.4-0.3,0-1-0.4-0.7c-2.1,1.6-4.1,3.1-6.2,4.7C258.3,251.6,258.7,252.3,259.1,251.9
			z"/>
		<path d="M265.3,247c6.8,1.5,13.6,0.4,20-2.1c2.9-1.1,6.2-2.3,8.7-4.2c1.7-1.3,2-3.8-0.3-4.7c-0.5-0.2-0.7,0.6-0.2,0.8
			c1.2,0.5,1.4,1.8,0.5,2.8c-0.4,0.5-1,0.8-1.6,1.1c-1.1,0.6-2.3,1.2-3.5,1.8c-2.5,1.2-5,2.2-7.6,2.9c-5.2,1.5-10.6,2-15.9,0.8
			C265,246.1,264.7,246.9,265.3,247z"/>
		<path class="st2" d="M193.2,127.8c4.2-3.5,10.5-7.7,18.9-10.2c3.9-1.2,8.9-2.6,15.4-2c10,0.9,16.9,5.8,19.3,7.6
			c3.8,2.8,6.4,5.7,8,7.8c0.3,19.4,0.7,38.7,1.2,58.1c0.2,6,0.3,12,0.5,17.9c-3.9,2.4-9.4,5.2-16.4,6.8c-16.3,3.7-29.9-1.2-35.4-3.6
			c0-4.9-0.3-12.2-1.8-21c-2.4-14.5-6.2-20.3-8.6-32.8C193.1,149.9,192,140.2,193.2,127.8z"/>
		<path class="st3" d="M243.2,132.5c-1.4,1.5-1.6,3.2-1.5,9.6c0.1,6.8,0.4,11.4,0.6,16.8c0.2,3.9,0.3,7,0.2,11
			c-0.1,5.1-0.4,9.3-0.7,12c-2.7,3-5.1,5.4-6.9,7.1c-4,3.8-8.4,8-14.9,11.9c-2.6,1.5-4.8,2.6-6.3,3.3c-1.4-0.2-2.9-0.6-4.5-1
			c-3.9-1-5.6-1.9-8.5-1.9c-0.9,0-3.7,0-4,1c-0.2,0.8,1.3,2.1,2.5,2.8c1.1,0.6,1.6,0.4,2.8,0.9c1.3,0.6,2.1,1.5,2.6,2.2
			c-0.5,0.7-1.3,1.9-2.2,3.3c-1,1.7-1.2,2.4-2.4,4.4c-1.2,2.2-1.9,3.2-2.4,3.8c-0.9,0.8-1.4,1-5.2,2.7c-3.8,1.7-4.5,2.1-4.5,2.6
			c0,0.5,0.7,0.6,3.7,1.8c2.4,1,2.6,1.2,3.9,1.6c1.5,0.4,2.5,0.7,3.6,0.5c1.8-0.4,3-1.7,3.5-2.4c0.2,0.2,0.9,0.7,1.7,0.7
			c0.6,0,1.2-0.2,1.6-0.6c1.7-1.2,2.6-3.5,4.3-6.1c0.3-0.4,1.4-2.1,3.1-3.9c1.1-1.2,2.1-2,2.8-2.6c1-0.2,2.4-0.6,4.1-1
			c6.7-1.9,11.5-4.2,15.5-6.1c2.4-1.1,5-2.6,10.3-5.6c4.6-2.6,7-4,9.1-6.8c0.2-0.3,1.4-1.8,2.4-4.1c0.3-0.7,1.4-3.1,2-7.5
			c0.3-1.9,0.3-3,0.3-8.9c0.1-7.6,0.1-6.7,0.1-7.5c0-11.1-0.6-10.1-0.8-20.4c0-1-0.1-3.6-0.9-6.9c-0.9-3.6-1.9-5.2-2.5-6
			c-0.8-1-1.7-2.2-3.3-2.9C249.1,129.3,245.2,130.3,243.2,132.5z"/>
		<path class="st5" d="M252.1,130.5c0.7,2.2,1.5,5.3,2,9.1c0.7,4.6,0.9,9.7-0.6,23c-1.2,11.1-1.9,16.7-3.5,21.8
			c-2.3,7.4-4,12.8-9,17c-3.3,2.7-6.8,4-14,6.5c-5.3,1.8-9.8,3-12.9,3.6c-2.2,3-5.5,6.8-10.2,10.4c-3.7,2.8-7.2,4.7-10.1,6.1
			c0.4,0.3,2.1,1.4,4.5,1.1c2.7-0.4,4.2-2.3,4.4-2.7c0.5,0.4,1.3,0.8,2.2,0.7c1.8-0.3,2.7-2.8,3.2-3.9c1-2.3,3.1-5.6,7.7-9.1
			c3-0.8,7.2-2,12-3.8c6.7-2.6,11.2-5.1,16-7.7c7.7-4.3,9.5-6.1,10.7-7.8c2.3-3.1,3.3-6.3,3.7-7.7c0.7-2.5,0.9-5.3,1.2-10.8
			c0.2-4.1,0.2-7.2,0.2-9.6c0-4.1-0.1-7.1-0.2-9.7c-0.1-3.8-0.3-8.3-0.9-13.6c-0.4-3.9-0.7-5.4-1.6-7.2
			C255.5,133.3,253.5,131.5,252.1,130.5z"/>
		<path d="M242.8,132.4c-1.4,3.6-1.6,7.5-1.5,11.3c0.1,4.2,0.3,8.4,0.5,12.6c0.4,8.6,0.7,17.1-0.4,25.7c-0.1,0.5,0.8,0.5,0.8,0
			c1-8.3,0.8-16.8,0.4-25.1c-0.2-4.1-0.4-8.3-0.5-12.5c-0.1-4,0-8,1.5-11.8C243.8,132.1,243,131.9,242.8,132.4z"/>
		<path d="M243,181.3c-2.5,1.4-4.6,3.5-6.6,5.6c-2.1,2.3-4.3,4.5-6.6,6.6c-4.9,4.2-10.3,7.7-16.2,10.4c-0.5,0.2-0.1,0.9,0.4,0.7
			c5.6-2.6,10.9-5.9,15.7-9.9c2.4-2,4.5-4.1,6.6-6.4c2.2-2.3,4.3-4.7,7.1-6.3C243.9,181.8,243.5,181.1,243,181.3z"/>
		<path d="M213.8,203.9c-3-0.6-6.1-1.3-9.2-2c-1.5-0.3-3.1-0.7-4.6-1c-1-0.2-2-0.2-2.8,0.3c-1.3,0.9-1.3,2.4-0.1,3.4
			c0.9,0.7,2,1,3,1.3c1.7,0.5,3.1,1.2,4.2,2.6c0.3,0.4,1.1,0,0.7-0.4c-1-1.2-2.1-2.1-3.6-2.7c-1-0.4-2.2-0.6-3.1-1.1
			c-0.7-0.4-1.5-0.9-1-1.9c0.5-0.9,1.7-0.9,2.5-0.7c2.3,0.3,4.6,1,6.9,1.5c2.4,0.5,4.7,1,7.1,1.5
			C214.1,204.9,214.3,204.1,213.8,203.9z"/>
		<path d="M203.5,208.7c-1.2,2.2-2.5,4.4-3.7,6.7c-0.6,1.1-1.1,2.2-1.9,3.3c-0.7,1.1-1.7,1.6-2.9,2.2c-2.2,1-4.5,1.9-6.6,3
			c-0.9,0.6-1.6,1.5-0.7,2.5c1,1.2,3,0.7,4.3,0.5c1.8-0.3,3.6-0.9,5.2-1.7c3.5-1.7,6.4-4.3,8.5-7.5c0.3-0.4-0.4-0.9-0.7-0.4
			c-1.9,2.9-4.4,5.2-7.4,6.8c-1.4,0.7-3,1.4-4.6,1.7c-0.9,0.2-1.8,0.4-2.8,0.4c-0.9,0.1-1.1,0.2-1.5-0.7c-0.5-0.5-0.5-0.8,0.1-1
			c0.2-0.1,0.4-0.2,0.6-0.2c1.8-0.8,3.6-1.6,5.3-2.5c1.4-0.6,2.7-1.2,3.7-2.4c1.1-1.5,1.9-3.2,2.8-4.8c1-1.8,2-3.7,3-5.5
			C204.4,208.6,203.7,208.2,203.5,208.7z"/>
		<path d="M216.1,214.7c7.4-2.1,14.6-4.8,21.4-8.3c3.4-1.7,6.7-3.6,10-5.6c2.9-1.8,6-3.7,8.1-6.5c0.3-0.4-0.4-0.9-0.7-0.4
			c-2.2,2.9-5.5,4.8-8.6,6.7c-3.1,1.9-6.3,3.7-9.6,5.3c-6.7,3.3-13.6,5.9-20.8,8C215.4,214.1,215.6,214.9,216.1,214.7z"/>
		<path d="M243.3,133.2c2.3-4.5,8.2-3.5,11.1-0.3c3.5,3.9,3.7,9.5,4,14.4c0.8,10.7,1,21.6,0.3,32.3c-0.3,5.2-1.1,10.7-4.6,14.9
			c-0.3,0.4,0.2,1,0.6,0.6c3.1-3.8,4.2-8.5,4.6-13.3c0.6-6.1,0.6-12.2,0.5-18.3c-0.1-6.4-0.4-12.8-0.9-19.1
			c-0.4-4.8-1.3-10.1-5.3-13.2c-3.4-2.7-9-2.6-11.2,1.6C242.4,133.2,243.1,133.6,243.3,133.2z"/>
		<path d="M191.2,227.3c2,0.9,4.5,2.3,6.8,2.3c2.2,0,3.8-1.9,5.3-3.2c4.3-4,8.6-8,12.9-11.9c0.4-0.4-0.2-0.9-0.6-0.6
			c-3.6,3.4-7.3,6.7-10.9,10.1c-1.6,1.5-3.3,3.6-5.3,4.5c-2.4,1.1-5.6-0.9-7.8-1.8C191.1,226.4,190.7,227.1,191.2,227.3z"/>
		<path d="M202.5,226.8c0.9,1.7,2.9,1,4-0.2c2-2.4,3.6-5.2,5.3-7.8c0.3-0.4-0.4-0.9-0.7-0.4c-1.1,1.6-2.2,3.2-3.2,4.8
			c-0.6,0.9-3.3,5.7-4.6,3.2C202.9,225.9,202.2,226.3,202.5,226.8z"/>
		<path d="M196,225.4c0.8,0.4,1.9,0.9,2.8,0.4c0.5-0.2,0.7-0.6,0.9-1.1c0.4-0.7,0.8-1.3,1.5-1.8c0.4-0.3,0-1-0.4-0.7
			c-0.7,0.4-1.2,1-1.6,1.7c-0.3,0.5-0.4,1.2-1.2,1.2c-0.5,0.1-1.1-0.3-1.5-0.5C196,224.5,195.6,225.2,196,225.4z"/>
		<path class="st3" d="M190.4,67.6c-1,2-1.9,5.2-2.2,6.3c-0.4,1.5-1.4,5.2-2,10c-0.3,2.7-0.6,5.6-0.4,9.4c0.1,1.8,0.3,4.7,1.4,8.3
			c0.7,2.4,1.8,5.9,4.6,9.5c2.5,3.1,5.3,5.1,7.6,6.3c1.4,0,3.2-0.1,5.1-0.4c3.5-0.7,6.2-2,8-3c0.2,1.4,0.6,2.9,1,4.4
			c0.9,3.2,1.9,6,3,8.4c1.1-0.2,2.5-0.5,3.9-1.2c4.6-2.1,6.8-6,7.5-7.7c-0.4-1.6-0.7-3.3-1.1-5.1c-1.1-6.7-0.8-12.7-0.1-17.6
			c0.6,0.2,1.5,0.4,2.7,0.4c2.3-0.1,3.8-1.4,4.6-2c0.7-0.6,3.7-3.2,3.6-7.2c0-0.9-0.1-3.2-1.7-4.5c-1.5-1.1-3.6-0.7-5.1-0.4
			c-1.7,0.4-3,1.1-3.8,1.6c0.6-1.9,1.8-6.8,0-12.5c-0.4-1.2-3-8.9-10.5-12.3C206.3,53.7,193.9,60.5,190.4,67.6z"/>
		<path class="st6" d="M221.6,67.8c0.2,2.6,0.4,6.3,0,10.7c-1.2,13.4-6.5,22.7-7.9,25c-2.1,3.5-5.7,8.7-11.5,13.7
			c1.7-0.2,3.7-0.6,5.8-1.4c5.8-2,9.7-5.6,11.8-7.8c0.2,3.1,0.7,6.8,1.9,10.9c0.6,1.7,1.2,3.3,1.8,4.8c1.5-1.9,2.9-3.8,4.4-5.7
			c-0.3-1.8-0.6-3.7-0.8-5.7c-0.6-5.9-0.6-11.4-0.3-16.3c1.2,0,3-0.1,5-0.8c8.4-3.3,13.1-16.5,8.6-23.7c-0.2-0.3-1.2-1.9-3.2-3.2
			C230.8,64.1,222.8,67.3,221.6,67.8z"/>
		<path class="st2" d="M188.3,73.1c-0.6-1.9-1.3-5.6-0.5-10c0.2-1.4,1.1-5.8,4.2-9.3c4.5-5.1,10-4.1,17.3-6.7
			c4.6-1.6,10.9-5.1,17.3-13.1c-0.6,3-1.2,6-1.7,9c1,0.3,4.3,1,7.8-0.7c5.7-2.8,6.2-9.5,6.2-9.8c0.7,1.5,1.9,5,1.4,9.3
			c-0.4,3-1.5,5.2-2.2,6.6c0.3,0.4,2.1,2.2,4.2,1.9c2.5-0.3,4.8-3.7,4.2-8.1c0.6,1.6,1.2,4.3,1.1,7.6c-0.2,4-1.6,7-2.4,8.6
			c0.2,0.2,1.6,1.5,3.6,1.2c1.7-0.2,3.2-1.5,3.8-3.3c-0.1,1.9-0.5,4.5-1.5,7.6c-1.5,4.1-2.7,4.5-3.3,7.4c-1,4.6,1.5,6.2,0.9,10.4
			c-0.6,3.5-2.8,5.7-5.7,8.5c-5.2,5.1-11.2,7.8-16.3,9.3c0.2-1.5,0.5-3.1,0.7-4.6c0.6,0.4,1.7,0.9,3.1,0.9c2.8-0.1,4.6-2.6,5.5-4
			c1.1-1.5,2.9-4.1,1.9-6.9c-0.8-2.3-2.9-3.2-3.1-3.3c-2.5-1-5.7-0.1-7.8,2.4c-1.2-4.6-2.3-9.1-3.5-13.6c-3.9-2.5-7.8-4.9-11.8-7.4
			c-1.9-0.4-7.2-1.1-13.1,1.5C192.4,67,189.3,71.5,188.3,73.1z"/>
		<path d="M187.9,73c-2.4,8.8-3.8,18.1-1.6,27.1c1.8,7.3,6.3,15.6,13.9,18c0.5,0.2,0.7-0.6,0.2-0.8c-7.7-2.4-12-11-13.5-18.3
			c-1.9-8.6-0.4-17.4,1.8-25.7C188.9,72.7,188.1,72.5,187.9,73z"/>
		<path d="M200.8,117.9c12.8-1.3,23.4-10.5,26.4-23c0.1-0.5-0.7-0.7-0.8-0.2c-2.9,12.1-13.2,21.1-25.6,22.4
			C200.3,117.2,200.3,118,200.8,117.9z"/>
		<path d="M226.5,95.2c5.7,3.5,11.3-3.8,11.6-8.9c0.2-2.7-1.1-4.8-3.7-5.6c-2.5-0.7-5.2,0-7,1.9c-0.4,0.4,0.2,1,0.6,0.6
			c1.5-1.6,3.7-2.3,5.8-1.8c1.1,0.2,2.3,0.9,3,1.9c0.7,1.1,0.6,2.6,0.4,3.8c-0.7,4.3-5.4,10.4-10.3,7.4
			C226.5,94.2,226,94.9,226.5,95.2z"/>
		<path d="M226.4,95.1c-1.1,7.6-0.7,15.4,1.1,22.9c0.1,0.5,0.9,0.3,0.8-0.2c-1.8-7.4-2.2-15-1.1-22.5
			C227.3,94.8,226.5,94.6,226.4,95.1z"/>
		<path d="M212.1,114c0.9,4.5,2.2,8.8,4,13c0.2,0.5,0.9,0.1,0.7-0.4c-1.8-4.1-3.1-8.4-3.9-12.8C212.8,113.3,212.1,113.5,212.1,114z"
			/>
		<path d="M216.7,127.2c5.3-0.9,9.9-4.5,11.9-9.5c0.2-0.5-0.6-0.7-0.8-0.2c-1.9,4.8-6.3,8.1-11.3,8.9
			C216,126.4,216.2,127.2,216.7,127.2z"/>
		<path d="M212.8,115c1.1,0.1,1.9-0.7,2.8-1.4c1.1-0.9,2.2-1.8,3.2-2.8c1.9-1.9,3.3-4,4.3-6.4c0.2-0.5-0.6-0.7-0.8-0.2
			c-0.9,2.2-2.2,4.1-3.8,5.7c-0.7,0.8-1.5,1.5-2.3,2.2c-0.9,0.7-2.2,2.2-3.4,2.1C212.3,114.1,212.3,115,212.8,115z"/>
		<path d="M212.9,114.6c2.4-1.5,4.5-3.3,6.6-5.2c0.4-0.4-0.2-1-0.6-0.6c-2,1.9-4.1,3.6-6.4,5.1C212,114.1,212.4,114.8,212.9,114.6z"
			/>
		<path d="M196.6,74.6c-1.6,7-2.4,14.2-2.6,21.4c0,0.4,0.6,0.6,0.8,0.2c1.1-1.7,2.2-3.5,3.2-5.2c0.3-0.4-0.4-0.9-0.7-0.4
			c-1.1,1.7-2.2,3.5-3.2,5.2c0.2,0.1,0.5,0.1,0.8,0.2c0.2-7.1,1.1-14.2,2.6-21.2C197.5,74.3,196.7,74.1,196.6,74.6z"/>
		<path d="M197.7,106.4c-0.7-1.2-1.1-2.6-1.2-4c-0.1-1,0.1-5,2-3.4c1,0.9,0.9,2.7,0.9,4c0,0.6,0,1.2-0.1,1.8c0,0.4-0.1,0.8-0.2,1.2
			c-0.7,0.5-1.3,0.5-1.6-0.1c-0.4-0.4-1,0.2-0.6,0.6c1.2,1.2,2.7,1.3,3.1-0.6c0.2-1.4,0.2-2.8,0.1-4.1c-0.1-1.1-0.1-2.6-0.9-3.5
			c-1.2-1.2-2.9-0.1-3.3,1.2c-0.9,2.3,0,5.2,1.1,7.3C197.2,107.3,197.9,106.9,197.7,106.4z"/>
		<path d="M203.4,81.5c0.8,3.9,5.9,4.2,7.5,0.6c0.2-0.5-0.6-0.7-0.8-0.2c-1.2,2.9-5.2,2.4-5.9-0.6C204.1,80.8,203.3,81,203.4,81.5z"
			/>
		<path d="M201.8,71.9c1.1-2.3,3.8-3.5,6.3-3c2.6,0.6,4.5,2.5,5.8,4.7c0.3,0.5,1,0.1,0.7-0.4c-1.5-2.5-3.8-4.7-6.8-5.2
			c-2.7-0.4-5.6,0.9-6.7,3.4C200.8,72,201.6,72.4,201.8,71.9z"/>
		<path d="M185.6,72.9c0.7-1.5,2-3.2,4-3.2c1.8,0,3.2,1.6,4.1,3c0.3,0.4,1,0,0.7-0.4c-1.1-1.7-2.6-3.4-4.8-3.5
			c-2.2,0-3.8,1.8-4.6,3.6C184.6,72.9,185.4,73.3,185.6,72.9z"/>
		<path d="M190.5,85.4c0.5,0,0.9-1.8,0.9-4.1c0-2.2-0.4-4.1-0.9-4.1s-0.9,1.8-0.9,4.1C189.6,83.6,190,85.4,190.5,85.4z"/>
		<path class="st3" d="M193,129.1c-0.1,1-0.2,2.4-0.2,4.1c-0.2,5.6,0,9.8,0.1,10.9c0.2,3.7,0.7,8.5,1.9,14.1
			c-1.1,1.3-2.8,3.1-4.9,5.4c-4,4.2-6.1,6.4-9.4,8.6c-3.7,2.5-6.3,3.3-7.7,3.6c-1.7,0.4-3.4,0.8-5.4,0.4c-3.3-0.7-5.3-3.2-6-4.1
			c-1.8-2.3-2.2-4.6-3-9c-0.6-3.2-0.7-5.7-0.8-10.4c-0.1-2.3-0.2-5-0.1-8.7c0.1-4.2,0.3-9.1,0.9-14.6c0.3-2.5,0.7-5.6,1.3-9
			c-0.5-0.7-1-1.3-1.5-2c-0.6-0.7-1.1-1.4-1.6-2.1c-1.4,1.2-2.8,2.4-4.2,3.6c-0.4,0.1-1,0.4-1.8,0.3c-1.5-0.1-2.3-1.2-2.6-1.5
			c-1.4-1.5-1.2-3.5-1.1-3.9c1.9-2.1,3.8-4.1,5.8-6.2c0-1.2,0.2-2.7,0.7-4.4c0.4-1.3,0.8-2.3,1.2-3.2c0.4-0.7,0.9-1.5,1.5-2.3
			c1.1-1.5,2.4-2.5,3.3-3.3c-0.8,0.4-1,0.4-1.1,0.3c-0.1-0.2,1.2-1.9,3-2c1-0.1,1.8,0.3,2.4,0.5c0.9,0.4,1.4,0.9,1.8,1.3
			c1.7-1.5,3.4-2.9,5.1-4.4c0.6,0.4,1.2,0.8,1.8,1.2c1.4,1,2.7,1.9,3.8,2.9c-0.4,0.5-0.9,1.1-1.6,1.7c-1.1,1-2.2,1.5-3.1,1.9
			c0.5,0.2,1.5,0.6,1.9,1.5c0.5,0.9,0.3,1.9,0,3.1c-0.2,0.8-0.4,1.5-0.6,1.9c0.1,1.2,0.2,2.7-0.2,4.5c-0.5,2.9-1.7,5.1-2.6,6.3
			c0,1.1-0.1,2.8,0,4.8c0.2,8.5,1.5,13.5,2.3,19.8c0.5,3.6,0.9,8.9,0.8,15.6c0.6-0.4,1.5-1.1,2.6-1.9c2.6-2.2,4.3-4.4,6.4-7.6
			c2.2-3.1,3.6-5.4,5.5-8.5C188.7,136,190.6,132.9,193,129.1z"/>
		<path class="st6" d="M167.9,103.8c-0.6,1.3-1.2,2.6-1.7,3.9c-1.7,4-3.1,7.8-4.2,11.4c-0.2,5.7-0.4,10.5-0.5,14
			c-0.1,5.3,0.2,11.6,0.8,24.2c0.2,5.2,0.5,8.3,2.9,10.6c2.5,2.4,6.1,2.4,8.1,2.4c10.6,0,18.6-9.1,20.8-11.7c-3,5-6.3,8.3-8.6,10.2
			c-2.6,2.2-5.9,4.9-11.2,6.3c-4.4,1.2-6.4,0.9-6.9,0.8c-3.8-0.9-5.9-4.1-6.6-5.1c-1.8-2.7-2.4-5.5-2.7-11.5
			c-0.3-6.2,0-7.8,0.1-16.3c0.1-8.1-0.2-10.4,0.4-16c0.4-3.3,0.8-6,1.2-7.8c-1.1-1.1-2.2-2.3-3.2-3.4c-0.9,0.8-1.9,1.6-2.8,2.4
			c-0.6,0.5-1.2,1-1.9,1.5c-0.6,0.1-1.4,0-2.2-0.3c-2.2-0.9-3.6-3.7-2.9-4.6c0.4-0.6,1.6-0.1,3.2-0.1c2.8,0,4.6-1.4,8.3-4
			C160.7,108.9,163.7,106.8,167.9,103.8z"/>
		<path d="M192.7,128.8c-6.4,8.8-11.1,18.9-19.2,26.4c-0.4,0.4,0.2,0.9,0.6,0.6c8.1-7.6,12.9-17.7,19.3-26.6
			C193.7,128.8,193,128.4,192.7,128.8z"/>
		<path d="M168.9,176.7c11-0.7,18.8-9.9,25.4-17.7c0.3-0.4-0.2-1-0.6-0.6c-6.4,7.6-14.1,16.7-24.8,17.5
			C168.3,175.9,168.3,176.7,168.9,176.7z"/>
		<path d="M163.7,98.9c0.1,2.2,1.5,4.1,3.6,4.7c0.5,0.1,0.7-0.7,0.2-0.8c-1.7-0.5-2.9-2.1-3-3.9C164.5,98.4,163.6,98.4,163.7,98.9z"
			/>
		<path d="M164.5,98.7c0.3-2.4,4.6-0.7,5.7-0.1c1.1,0.6,2.3,1.2,2.5,2.5c0.2,1-0.1,2.2-0.4,3.2c-0.1,0.5,0.7,0.7,0.8,0.2
			c0.4-1.4,0.8-3,0.2-4.3c-0.6-1.4-2.1-2-3.3-2.6c-1.3-0.6-2.7-1-4.1-0.9c-0.6,0.1-1.3,0.2-1.8,0.6c-0.5,0.4-0.4,0.7-0.5,1.4
			C163.6,99.2,164.5,99.2,164.5,98.7z"/>
		<path d="M172.1,104.1c-0.1,2.1,0.4,4.1-0.1,6.2c-0.5,1.9-1.4,3.7-2.4,5.5c-0.2,0.5,0.5,0.9,0.7,0.4c1-1.8,1.9-3.7,2.4-5.7
			c0.5-2.2,0.1-4.3,0.1-6.5C172.9,103.6,172.1,103.6,172.1,104.1z"/>
		<path d="M169.6,115.9c-0.6,14.6,3.5,28.8,2.9,43.4c0,0.5,0.8,0.5,0.8,0c0.7-14.6-3.5-28.8-2.9-43.4
			C170.5,115.4,169.6,115.4,169.6,115.9z"/>
		<path d="M156,116.2c0.8,1.2,1.7,2.3,2.7,3.3c0.4,0.4,0.9-0.2,0.6-0.6c-0.9-1-1.8-2-2.6-3.1C156.4,115.3,155.7,115.7,156,116.2z"/>
		<path d="M159.2,119.3c-1.6,9-2.4,18.1-2.3,27.2c0,4.5,0.3,9.1,0.7,13.6c0.4,3.8,0.8,7.9,2.8,11.2c1.8,3.1,5,5.4,8.7,5.3
			c0.5,0,0.5-0.9,0-0.8c-5.1,0.1-8.4-4.4-9.6-8.9c-1.3-4.9-1.4-10.3-1.6-15.3c-0.4-10.7,0.3-21.5,2.2-32
			C160.1,118.9,159.3,118.7,159.2,119.3z"/>
		<path d="M154,106.9c-2.6,2.2-5.1,4.5-7.5,6.9c-0.4,0.4,0.2,1,0.6,0.6c2.4-2.4,4.9-4.7,7.5-6.9C155,107.1,154.4,106.5,154,106.9z"
			/>
		<path d="M146.2,114.5c-0.4,3.2,2,5.9,5.3,5.9c0.5,0,0.5-0.8,0-0.8c-2.8,0-4.8-2.3-4.4-5.1C147.1,114,146.3,114,146.2,114.5z"/>
		<path d="M147,114.3c2.9,0.1,4.9,2.7,4.3,5.5c-0.1,0.5,0.7,0.7,0.8,0.2c0.7-3.4-1.6-6.4-5.1-6.5C146.5,113.5,146.5,114.3,147,114.3
			z"/>
		<path d="M152.5,119.9c3.2-2.9,6.4-5.7,9.4-8.7c1.4-1.4,2.8-2.7,4-4.2c0.7-0.8,2.4-2.4,2.5-3.5c0-0.1-0.1-0.3-0.2-0.4
			c-0.1,0-0.1-0.1-0.1-0.1c-0.2-0.1-0.4-0.1-0.5,0.1c0,0-0.1,0.1-0.1,0.1c-0.3,0.4,0.2,1,0.6,0.6c0,0,0.1-0.1,0.1-0.1
			c-0.2,0-0.3,0.1-0.5,0.1c-0.1-0.2-0.1-0.2-0.2,0c-0.1,0.2-0.3,0.4-0.4,0.6c-0.3,0.4-0.6,0.8-1,1.2c-0.6,0.7-1.2,1.4-1.7,2
			c-1.2,1.3-2.5,2.6-3.8,3.8c-2.8,2.7-5.7,5.2-8.6,7.8C151.5,119.6,152.1,120.2,152.5,119.9z"/>
		<path d="M152.8,108.4c0.2-1.3,0.4-2.7,0.6-4c0.1-1,0.2-2.1,0.8-3c1.3-2,3.1-0.6,4,0.8c0.4,0.6,0.8,1.2,1.2,1.8
			c0.2,0.3,1.3,1.5,1.2,1.9c0.1-0.1,0.3-0.2,0.4-0.3c-0.1,0-0.1,0-0.1,0c-0.5,0-0.5,0.8,0,0.8c0.1,0,0.1,0,0.1,0
			c0.2,0,0.4-0.1,0.4-0.3c0.2-0.7-0.3-1.1-0.6-1.7c-0.7-1-1.4-2.1-2.1-3.1c-0.7-1-1.7-2-3.1-1.9c-1.3,0.1-2.1,1.2-2.5,2.3
			c-0.7,2-0.7,4.2-1.1,6.2C151.9,108.7,152.7,108.9,152.8,108.4z"/>
		<path d="M154.1,105.3c0.7,1.5,2,3,3.8,3.1c1.5,0.1,2.8-0.7,3.2-2.2c0.1-0.5-0.7-0.7-0.8-0.2c-0.4,1.3-1.8,1.8-3,1.4
			c-1.2-0.4-1.9-1.4-2.4-2.5C154.6,104.4,153.9,104.8,154.1,105.3z"/>
		<path d="M155.1,99.9c0.1-1.4,1.7-1.7,2.7-1.4c1.1,0.4,2,1.4,2.7,2.2c0.6,0.6,1.8,1.5,2,2.4c0.2,1.2-1.3,2-2.3,2.3
			c-0.5,0.1-0.3,0.9,0.2,0.8c1.2-0.4,3-1.4,3.2-2.9c0.1-0.6-0.3-0.9-0.7-1.3c-0.8-0.8-1.5-1.6-2.3-2.4c-1.1-1.1-2.5-2.3-4.1-2
			c-1.2,0.2-2.2,1-2.3,2.3C154.3,100.4,155.1,100.4,155.1,99.9z"/>
		<path d="M156.6,97.9c0.4-0.4,0.6-1,0.9-1.5c0.9-1.1,2.3-0.1,3.2,0.6c1.8,1.2,3.7,3.5,2,5.7c-0.3,0.4,0.4,0.9,0.7,0.4
			c1.7-2.3,0-5-1.9-6.5c-0.9-0.7-2.3-1.9-3.5-1.6c-1.1,0.3-1.3,1.6-2,2.3C155.7,97.7,156.3,98.2,156.6,97.9z"/>
		<path d="M159.4,95.3c1-1.2,2.2-2.4,3.7-1.2c1,0.8,1.6,1.9,2,3.1c0.2,0.5,0.9,0.3,0.8-0.2c-0.5-1.6-1.5-3.5-3.2-4.1
			c-1.6-0.7-3,0.6-4,1.8C158.5,95.1,159.1,95.8,159.4,95.3z"/>
		<path d="M165.5,95.4c1.7-1.5,3.4-2.9,5.1-4.4c0.4-0.4-0.2-0.9-0.6-0.6c-1.7,1.5-3.4,2.9-5.1,4.4C164.5,95.2,165.2,95.8,165.5,95.4
			z"/>
		<path d="M171.7,99c1.6-1.2,3.2-2.5,4.7-3.8c0.4-0.4-0.2-0.9-0.6-0.6c-1.4,1.3-2.9,2.6-4.5,3.7C170.8,98.6,171.2,99.3,171.7,99z"/>
		<path class="st7" d="M184.1,96.9c9.2,0,16.7-7.5,16.7-16.7s-7.5-16.7-16.7-16.7c-9.2,0-16.7,7.5-16.7,16.7S174.9,96.9,184.1,96.9z
			"/>
		<path d="M174,82.3c6.1-3.9,12.4-7.6,18.8-11.1c0.5-0.2,0.1-1-0.4-0.7c-6.4,3.5-12.7,7.2-18.8,11.1C173.1,81.9,173.5,82.6,174,82.3
			z"/>
		<path d="M174.6,89.5c5.1-3.7,10.2-7.3,15.4-10.7c0.4-0.3,0-1-0.4-0.7c-5.2,3.5-10.3,7.1-15.4,10.7
			C173.8,89.1,174.2,89.8,174.6,89.5z"/>
	</g>
</g>
</svg>
