<?xml version="1.0" encoding="utf-8"?>
<!-- Generator: Adobe Illustrator 22.0.0, SVG Export Plug-In . SVG Version: 6.00 Build 0)  -->
<svg version="1.1" id="Capa_1" xmlns="http://www.w3.org/2000/svg" xmlns:xlink="http://www.w3.org/1999/xlink" x="0px" y="0px"
	 viewBox="0 0 19.9 23.1" style="enable-background:new 0 0 19.9 23.1;" xml:space="preserve">
<style type="text/css">
	.st0{fill:#BFFE2D;}
</style>
<path class="st0" d="M19.3,5c0,0.6-0.4,0.9-0.9,0.9H1.5C0.9,5.9,0.5,5.5,0.5,5S0.9,4,1.5,4h4.7V3.1c0-0.6,0.4-0.9,0.9-0.9h5.6
	c0.6,0,0.9,0.4,0.9,0.9V4h4.7C19,4,19.3,4.4,19.3,5z M3.3,20.1L2.4,7.8h15l-0.8,12.3c0,0.5-0.5,0.8-0.9,0.8H4.2
	C3.7,21,3.4,20.6,3.3,20.1z M12.8,17.2c0,0.6,0.4,0.9,0.9,0.9c0.6,0,0.9-0.4,0.9-0.9v-5.6c0-0.6-0.4-0.9-0.9-0.9
	c-0.6,0-0.9,0.4-0.9,0.9V17.2z M9,17.2c0,0.6,0.4,0.9,0.9,0.9s0.9-0.4,0.9-0.9v-5.6c0-0.6-0.4-0.9-0.9-0.9S9,11,9,11.6V17.2z
	 M5.2,17.2c0,0.6,0.4,0.9,0.9,0.9s0.9-0.4,0.9-0.9v-5.6c0-0.6-0.4-0.9-0.9-0.9S5.2,11,5.2,11.6V17.2z"/>
</svg>
