<?xml version="1.0" encoding="utf-8"?>
<!-- Generator: Adobe Illustrator 22.0.0, SVG Export Plug-In . SVG Version: 6.00 Build 0)  -->
<svg version="1.1" id="svg26" xmlns="http://www.w3.org/2000/svg" xmlns:xlink="http://www.w3.org/1999/xlink" viewBox="0 0 120 50" width="120" height="50"
	 style="enable-background:new 0 0 80 54.5;" xml:space="preserve">
<style type="text/css">
	.st0{fill:#BFFE2D;}
</style>
<g>
	<path id="path7" class="st0" d="M48.6,6.5h3.6c0.2,0,0.3,0.2,0.3,0.3v36.3c0,0.2-0.2,0.3-0.3,0.3h-3.6c-0.2,0-0.3-0.2-0.3-0.3V6.9
		C48.3,6.7,48.5,6.5,48.6,6.5z M23.9,36.4v0.9c0,0.4-0.1,1-0.2,1.6c-0.1,0.6-0.5,1.4-1.1,2c-0.6,0.6-1.4,1.3-2.6,1.8
		c-1.2,0.5-2.7,0.7-4.8,0.7s-3.6-0.3-4.8-0.7s-2-1.1-2.6-1.8c-0.6-0.6-1-1.4-1.1-2.1s-0.2-1.2-0.2-1.6V16.6c0-0.2,0.2-0.3,0.3-0.3
		h3.6c0.2,0,0.3,0.2,0.3,0.3V36c0,0.6,0.1,1.1,0.2,1.4c0.1,0.4,0.3,0.7,0.5,1c0.3,0.3,0.7,0.6,1.3,0.8c0.5,0.2,1.3,0.3,2.2,0.3
		c1,0,1.8-0.1,2.4-0.3c0.6-0.2,1-0.5,1.3-0.8c0.3-0.3,0.5-0.6,0.6-1c0.1-0.4,0.2-0.6,0.2-1.6V16.6c0-0.2,0.2-0.3,0.3-0.3h3.6
		c0.2,0,0.3,0.2,0.3,0.3L23.9,36.4z M64.6,13c0.1-0.3,0.2-0.5,0.4-0.6c0.2-0.2,0.4-0.2,0.6-0.3c0.4-0.2,0.9-0.3,1.3-0.5
		c0.5-0.2,0.9-0.3,1.3-0.5c0.5-0.2,1-0.3,1.4-0.5c0.3-0.2,0.6-0.3,0.9-0.5c0.2-0.2,0.5-0.5,0.7-0.8c0.2-0.4,0.3-0.8,0.3-1.3
		c0-1-0.2-1.8-0.7-2.3C70.3,5.2,69.4,5,68.1,5c-1.3,0-2.3,0.3-2.8,0.8C64.8,6.3,64.5,7,64.5,8L64.6,13z M36.1,16.3
		c2.9,0,5.1,0.6,6.5,1.8c1.4,1.2,2.1,2.6,2.1,4.4v14.9c0,0.6-0.1,1.3-0.3,2c-0.2,0.7-0.6,1.4-1.3,2c-0.6,0.6-1.5,1.1-2.6,1.5
		c-1.1,0.4-2.6,0.6-4.3,0.6c-1.8,0-3.2-0.2-4.3-0.6c-1.1-0.4-2-0.9-2.6-1.5c-0.6-0.6-1.1-1.3-1.3-2c-0.2-0.7-0.3-1.4-0.3-2V35
		c0-1.3,0.3-2.4,1-3.5c0.6-1,1.6-1.8,2.8-2.2c0.6-0.2,1.3-0.4,2.1-0.7c0.8-0.3,1.5-0.5,2.2-0.8c0.7-0.3,1.3-0.5,1.9-0.6
		c0.5-0.2,0.9-0.3,1-0.4c0.1-0.1,0.3-0.2,0.5-0.3c0.2-0.1,0.4-0.3,0.6-0.5c0.2-0.3,0.4-0.5,0.5-0.8c0.2-0.3,0.2-0.6,0.2-1.1v-1
		c0-0.3-0.1-0.6-0.2-1c-0.1-0.4-0.4-0.6-0.7-1c-0.3-0.3-0.8-0.5-1.3-0.7c-0.5-0.2-1.2-0.3-2.1-0.3c-1.7,0-2.8,0.3-3.4,1
		c-0.5,0.6-0.8,1.3-0.9,2.2c0,0.2-0.2,0.3-0.3,0.3h-3.7c-0.2,0-0.3-0.2-0.3-0.3v-0.9c0-0.8,0.2-1.6,0.5-2.4c0.3-0.7,0.8-1.4,1.6-2
		c0.7-0.5,1.6-1,2.7-1.3C33.3,16.5,34.6,16.3,36.1,16.3L36.1,16.3z M40.4,29.7c-0.1,0.3-0.3,0.6-0.5,0.8c-0.3,0.2-0.5,0.3-0.8,0.4
		c-0.5,0.2-1.1,0.4-1.6,0.6c-0.6,0.2-1.1,0.4-1.6,0.6c-0.6,0.2-1.2,0.4-1.7,0.6c-0.4,0.2-0.8,0.4-1.2,0.7c-0.3,0.3-0.6,0.6-0.8,1
		s-0.4,1-0.4,1.6c0,1.3,0.3,2.2,0.9,2.9c0.6,0.6,1.8,1,3.4,1c1.7,0,2.8-0.3,3.5-1c0.6-0.6,0.9-1.6,0.9-2.8L40.4,29.7z M64.9,16.3
		c2.9,0,5.1,0.6,6.5,1.8c1.4,1.2,2.1,2.6,2.1,4.4v14.9c0,0.6-0.1,1.3-0.3,2c-0.2,0.7-0.6,1.4-1.3,2c-0.6,0.6-1.5,1.1-2.6,1.5
		c-1.1,0.4-2.6,0.6-4.3,0.6c-1.8,0-3.2-0.2-4.3-0.6c-1.1-0.4-2-0.9-2.6-1.5c-0.6-0.6-1.1-1.3-1.3-2c-0.2-0.7-0.3-1.4-0.3-2V35
		c0-1.3,0.3-2.4,1-3.5c0.6-1,1.6-1.8,2.8-2.2c0.6-0.2,1.3-0.4,2.1-0.7c0.8-0.3,1.5-0.5,2.2-0.8c0.7-0.3,1.3-0.5,1.9-0.6
		c0.5-0.2,0.9-0.3,1-0.4c0.1-0.1,0.3-0.2,0.5-0.3c0.2-0.1,0.4-0.3,0.6-0.5c0.2-0.3,0.4-0.5,0.5-0.8c0.2-0.3,0.2-0.6,0.2-1.1v-1
		c0-0.3-0.1-0.6-0.2-1c-0.1-0.4-0.4-0.6-0.7-1c-0.3-0.3-0.8-0.5-1.3-0.7c-0.5-0.2-1.2-0.3-2.1-0.3c-1.7,0-2.8,0.3-3.4,1
		c-0.5,0.6-0.8,1.3-0.9,2.2c0,0.2-0.2,0.3-0.3,0.3h-3.7c-0.2,0-0.3-0.2-0.3-0.3v-0.9c0-0.8,0.2-1.6,0.5-2.4c0.3-0.7,0.8-1.4,1.6-2
		c0.7-0.5,1.6-1,2.7-1.3C62.1,16.5,63.4,16.3,64.9,16.3L64.9,16.3z M69.2,29.7c-0.1,0.3-0.3,0.6-0.5,0.8c-0.3,0.2-0.5,0.3-0.8,0.4
		c-0.5,0.2-1.1,0.4-1.6,0.6c-0.6,0.2-1.1,0.4-1.6,0.6c-0.6,0.2-1.2,0.4-1.7,0.6c-0.4,0.2-0.8,0.4-1.2,0.7c-0.3,0.3-0.6,0.6-0.8,1
		s-0.4,1-0.4,1.6c0,1.3,0.3,2.2,0.9,2.9c0.6,0.6,1.8,1,3.4,1c1.7,0,2.8-0.3,3.5-1c0.6-0.6,0.9-1.6,0.9-2.8L69.2,29.7z"/>
</g>
</svg>
